<?xml version="1.0" encoding="UTF-8" standalone="no"?>
<!-- Created with Inkscape (http://www.inkscape.org/) -->

<svg
   xmlns:dc="http://purl.org/dc/elements/1.1/"
   xmlns:cc="http://creativecommons.org/ns#"
   xmlns:rdf="http://www.w3.org/1999/02/22-rdf-syntax-ns#"
   xmlns:svg="http://www.w3.org/2000/svg"
   xmlns="http://www.w3.org/2000/svg"
   xmlns:sodipodi="http://sodipodi.sourceforge.net/DTD/sodipodi-0.dtd"
   xmlns:inkscape="http://www.inkscape.org/namespaces/inkscape"
   width="48px"
   height="48px"
   viewBox="0 0 48 48"
   version="1.1"
   id="SVGRoot"
   inkscape:export-filename="/home/kuchunkit/git/countdown-wc-pwa/src/static/icon-512.png"
   inkscape:export-xdpi="1024"
   inkscape:export-ydpi="1024"
   inkscape:version="0.92.3 (2405546, 2018-03-11)"
   sodipodi:docname="icon.svg">
  <sodipodi:namedview
     id="base"
     pagecolor="#ffffff"
     bordercolor="#666666"
     borderopacity="1.0"
     inkscape:pageopacity="0.0"
     inkscape:pageshadow="2"
     inkscape:zoom="7.5424723"
     inkscape:cx="13.130704"
     inkscape:cy="19.974765"
     inkscape:document-units="px"
     inkscape:current-layer="layer1"
     showgrid="false"
     inkscape:window-width="1366"
     inkscape:window-height="744"
     inkscape:window-x="0"
     inkscape:window-y="1104"
     inkscape:window-maximized="0"
     inkscape:grid-bbox="true" />
  <defs
     id="defs3713" />
  <metadata
     id="metadata3716">
    <rdf:RDF>
      <cc:Work
         rdf:about="">
        <dc:format>image/svg+xml</dc:format>
        <dc:type
           rdf:resource="http://purl.org/dc/dcmitype/StillImage" />
        <dc:title></dc:title>
      </cc:Work>
    </rdf:RDF>
  </metadata>
  <g
     id="layer1"
     inkscape:groupmode="layer"
     inkscape:label="Layer 1">
    <path
       style="fill:#000080;stroke:#000000;stroke-width:1px;stroke-linecap:butt;stroke-linejoin:miter;stroke-opacity:1"
       d="m 23.0625,6 c -0.25,-0.125 -0.478837,-0.3072092 -0.75,-0.375 -0.242536,-0.060634 -0.5,0 -0.75,0 -0.6875,0 -1.375,0 -2.0625,0 -0.1875,0 -0.375,0 -0.5625,0 -0.0625,0 -0.126866,0.015159 -0.1875,0 -0.191741,-0.047935 -0.368696,-0.1487391 -0.5625,-0.1875 -0.245145,-0.049029 -0.5,0 -0.75,0 -0.4375,0 -0.875,0 -1.3125,0 -0.159121,0 -1.021635,-0.034455 -1.125,0 -0.08385,0.027951 -0.103647,0.1595492 -0.1875,0.1875 -0.28125,0.09375 -0.65625,-0.09375 -0.9375,0 -0.08385,0.027951 -0.103647,0.1595492 -0.1875,0.1875 -0.118585,0.039529 -0.253732,-0.030317 -0.375,0 C 12.768706,5.9484484 13.093076,5.9587829 12.75,6.1875 12.517435,6.3425434 12.232565,6.4074566 12,6.5625 11.779369,6.7095871 11.649632,6.965901 11.4375,7.125 11.325697,7.2088525 11.178783,7.2349783 11.0625,7.3125 10.841869,7.4595871 10.712132,7.715901 10.5,7.875 10.388197,7.9588525 10.223821,7.9636788 10.125,8.0625 9.1668038,9.0206962 10.911183,7.8009875 9.5625,8.8125 9.4506966,8.8963525 9.2993034,8.9161475 9.1875,9 8.376508,9.810992 9.2371708,9.0293861 8.4375,9.5625 8.2168693,9.7095871 8.087132,9.965901 7.875,10.125 7.7631966,10.208853 7.6118034,10.228647 7.5,10.3125 7.15,10.575 6.9125,10.9875 6.5625,11.25 6.4506966,11.33385 6.2863212,11.33868 6.1875,11.4375 6.088679,11.53632 6.098821,11.713679 6,11.8125 5.901179,11.91132 5.7238212,11.90118 5.625,12 5.526179,12.09882 5.5213525,12.263197 5.4375,12.375 5.175,12.725 4.7625,12.9625 4.5,13.3125 4.416148,13.424303 4.411321,13.588679 4.3125,13.6875 4.213679,13.78632 4.0363212,13.77618 3.9375,13.875 3.838679,13.97382 3.8338525,14.138197 3.75,14.25 3.643934,14.391421 3.481066,14.483579 3.375,14.625 3.291148,14.736803 3.286321,14.901179 3.1875,15 3.088679,15.09882 2.9113212,15.08868 2.8125,15.1875 2.713679,15.28632 2.7025217,15.446217 2.625,15.5625 2.575971,15.636044 2.5,15.6875 2.4375,15.75 2.375,15.875 2.3275217,16.008717 2.25,16.125 c -0.049029,0.07354 -0.1479715,0.108443 -0.1875,0.1875 -0.027951,0.0559 0,0.125 0,0.1875 0,0.125 0,0.25 0,0.375 0,0.5 0,1 0,1.5 0,1.8125 0,3.625 0,5.4375 0,0.5 0,1 0,1.5 0,0.125 0,0.25 0,0.375 0,0.0625 -0.019764,0.128207 0,0.1875 0.044194,0.132583 0.1536046,0.239418 0.1875,0.375 0.030317,0.121268 0,0.25 0,0.375 0,0.4375 0,0.875 0,1.3125 0,0.0625 -0.019764,0.128207 0,0.1875 0.044194,0.132583 0.1536046,0.239418 0.1875,0.375 0.045475,0.181902 -0.059293,0.384622 0,0.5625 0.25,0.75 0.1799175,-0.03791 0.375,0.9375 0.024514,0.122573 -0.030317,0.253732 0,0.375 0.033895,0.135582 0.1433058,0.242417 0.1875,0.375 0.019764,0.05929 -0.019764,0.128207 0,0.1875 0.088388,0.265165 0.2866117,0.484835 0.375,0.75 0.019764,0.05929 0,0.125 0,0.1875 0.0625,0.25 0.091795,0.510737 0.1875,0.75 0.032827,0.08207 0.1595492,0.103647 0.1875,0.1875 0.039528,0.118585 -0.030317,0.253732 0,0.375 0.1359484,0.543794 0.1462829,0.219424 0.375,0.5625 0.077522,0.116283 0.1355966,0.245241 0.1875,0.375 0.073403,0.183506 0.1140975,0.378994 0.1875,0.5625 0.1038068,0.259517 0.3072092,0.478837 0.375,0.75 0.030317,0.121268 -0.046424,0.25894 0,0.375 0.083692,0.209229 0.2590599,0.369267 0.375,0.5625 0.071903,0.119838 0.1099783,0.258717 0.1875,0.375 0.049029,0.07354 0.134467,0.116789 0.1875,0.1875 0.1352082,0.180278 0.2342269,0.386534 0.375,0.5625 0.1656473,0.207059 0.4154129,0.341869 0.5625,0.5625 0.077522,0.116283 0.1099783,0.258717 0.1875,0.375 0.049029,0.07354 0.125,0.125 0.1875,0.1875 0.125,0.125 0.25,0.25 0.375,0.375 0.375,0.375 0.75,0.75 1.125,1.125 0.3125,0.3125 0.625,0.625 0.9375,0.9375 0.125,0.125 0.2335786,0.268934 0.375,0.375 0.1118034,0.08385 0.25,0.125 0.375,0.1875 0.25,0.125 0.5,0.25 0.75,0.375 0.25,0.125 0.510323,0.231194 0.75,0.375 0.715378,0.429227 -0.569956,-0.07798 0.5625,0.375 0.183506,0.0734 0.378994,0.114097 0.5625,0.1875 0.129759,0.0519 0.242417,0.143306 0.375,0.1875 0.24447,0.08149 0.502221,0.116706 0.75,0.1875 0.190038,0.0543 0.372462,0.133203 0.5625,0.1875 0.247779,0.07079 0.502221,0.116706 0.75,0.1875 0.190038,0.0543 0.375,0.125 0.5625,0.1875 0.3125,0.0625 0.628327,0.110207 0.9375,0.1875 0.191741,0.04794 0.367547,0.155008 0.5625,0.1875 0.184949,0.03083 0.376884,-0.02652 0.5625,0 0.474765,-0.01775 0.863684,0.300197 1.3125,0.375 0.184949,0.03083 0.376884,-0.02652 0.5625,0 0.255104,0.03644 0.494296,0.155537 0.75,0.1875 0.248069,0.03101 0.502513,-0.03536 0.75,0 0.195656,0.02795 0.367547,0.155008 0.5625,0.1875 0.184949,0.03083 0.375,0 0.5625,0 0.5,0 1,0 1.5,0 1.25,0 2.5,0 3.75,0 1.75,0 3.5,0 5.25,0 0.75,0 1.5,0 2.25,0 0.25,0 0.502513,0.03536 0.75,0 0.195656,-0.02795 0.368696,-0.148739 0.5625,-0.1875 0.122573,-0.02452 0.25,0 0.375,0 0.0625,0 0.131598,0.02795 0.1875,0 0.07906,-0.03953 0.103647,-0.159549 0.1875,-0.1875 0.118585,-0.03953 0.256415,0.03953 0.375,0 0.08385,-0.02795 0.125,-0.125 0.1875,-0.1875 0.125,-0.125 0.25,-0.25 0.375,-0.375 0.125,-0.125 0.25,-0.25 0.375,-0.375 0.125,-0.125 0.268934,-0.233579 0.375,-0.375 0.167705,-0.223607 0.219957,-0.517435 0.375,-0.75 0.04903,-0.07354 0.138471,-0.113956 0.1875,-0.1875 0.155043,-0.232565 0.231194,-0.510323 0.375,-0.75 0.11594,-0.193233 0.25906,-0.369267 0.375,-0.5625 0.0719,-0.119838 0.103647,-0.263197 0.1875,-0.375 0.139319,-0.185758 1.018279,-1.018279 1.125,-1.125 0.125,-0.125 0.25,-0.25 0.375,-0.375 C 41.875,39.125 41.926456,39.049029 42,39 c 0.09845,-0.06563 0.501085,-0.190754 0.5625,-0.375 0.03953,-0.118585 -0.03032,-0.253732 0,-0.375 0.06779,-0.271163 0.307209,-0.478837 0.375,-0.75 0.03032,-0.121268 -0.04924,-0.260107 0,-0.375 0.04554,-0.106268 0.751698,-1.267747 0.9375,-1.5 0.329268,-0.411585 0.795732,-0.713415 1.125,-1.125 0.195217,-0.244022 0.367283,-0.505978 0.5625,-0.75 0.05522,-0.06902 0.125,-0.125 0.1875,-0.1875 0.0625,-0.125 0.109978,-0.258717 0.1875,-0.375 0.04903,-0.07354 0.159549,-0.103647 0.1875,-0.1875 0.03953,-0.118585 0,-0.25 0,-0.375 0,-0.1875 0,-0.375 0,-0.5625 0,-0.5 0,-1 0,-1.5 0,-0.6875 0,-1.375 0,-2.0625 0,-0.1875 0,-0.375 0,-0.5625 0,-0.125 0.02055,-0.251701 0,-0.375 -0.04236,-0.254188 -0.151057,-0.494896 -0.1875,-0.75 -0.02652,-0.185616 0.02652,-0.376884 0,-0.5625 -0.05886,-0.412012 -0.241438,-0.911814 -0.375,-1.3125 C 45.5,24.75 45.407492,24.569953 45.375,24.375 c -0.03083,-0.184949 0.03083,-0.377551 0,-0.5625 C 45.342508,23.617547 45.241797,23.440038 45.1875,23.25 45.116706,23.002221 45.070794,22.747779 45,22.5 c -0.0543,-0.190038 -0.148739,-0.368696 -0.1875,-0.5625 -0.02452,-0.122573 0.04642,-0.25894 0,-0.375 C 44.72881,21.353271 44.538278,21.201556 44.4375,21 44.34911,20.823223 44.323403,20.621006 44.25,20.4375 44.1981,20.307741 44.114403,20.192259 44.0625,20.0625 43.9891,19.878994 43.96339,19.676777 43.875,19.5 c -0.03953,-0.07906 -0.142025,-0.111708 -0.1875,-0.1875 -0.143806,-0.239677 -0.25,-0.5 -0.375,-0.75 C 43.25,18.4375 43.176903,18.317259 43.125,18.1875 43.0516,18.003994 43.02589,17.801777 42.9375,17.625 42.89797,17.54594 42.795475,17.513292 42.75,17.4375 42.606194,17.197823 42.518806,16.927177 42.375,16.6875 42.32952,16.61171 42.232975,16.575792 42.1875,16.5 42.043694,16.260323 41.956306,15.989677 41.8125,15.75 41.76702,15.67421 41.674029,15.636044 41.625,15.5625 41.54748,15.446217 41.509403,15.307338 41.4375,15.1875 41.32156,14.994267 41.17844,14.818233 41.0625,14.625 40.9906,14.505162 40.97382,14.348821 40.875,14.25 40.77618,14.15118 40.598821,14.16132 40.5,14.0625 40.40118,13.96368 40.399804,13.79663 40.3125,13.6875 40.146853,13.480441 39.915647,13.332059 39.75,13.125 39.6627,13.01587 39.66132,12.848821 39.5625,12.75 39.46368,12.65118 39.286321,12.66132 39.1875,12.5625 39.08868,12.46368 39.09882,12.286321 39,12.1875 38.90118,12.08868 38.723821,12.09882 38.625,12 38.52618,11.90118 38.53632,11.723821 38.4375,11.625 38.33868,11.52618 38.182338,11.509403 38.0625,11.4375 37.869267,11.32156 37.693233,11.17844 37.5,11.0625 37.380162,10.990597 37.241283,10.952522 37.125,10.875 36.977913,10.776942 36.897087,10.598058 36.75,10.5 35.897929,9.9319527 36.852071,10.693047 36,10.125 35.926456,10.075971 35.886044,9.986529 35.8125,9.9375 34.993586,9.391557 35.874303,10.020601 35.0625,9.75 34.978647,9.7220492 34.948544,9.611529 34.875,9.5625 34.706015,9.1902512 34.355489,9.4902443 34.125,9.375 33.966886,9.2959431 33.897087,9.0980581 33.75,9 33.698,8.965331 33.621793,9.019764 33.5625,9 33.429917,8.955806 33.323082,8.8463954 33.1875,8.8125 c -0.121268,-0.030317 -0.256415,0.039528 -0.375,0 C 32.72865,8.784549 32.708853,8.6529508 32.625,8.625 32.506415,8.585472 32.371268,8.655317 32.25,8.625 32.114418,8.591105 32.007583,8.4816942 31.875,8.4375 c -0.05929,-0.019764 -0.128207,0.019764 -0.1875,0 -0.265165,-0.088388 -0.484835,-0.2866117 -0.75,-0.375 -0.05929,-0.019764 -0.128207,0.019764 -0.1875,0 C 30.617417,8.018306 30.510582,7.9088954 30.375,7.875 30.253732,7.844683 30.118585,7.914529 30,7.875 29.91615,7.847049 29.896353,7.7154508 29.8125,7.6875 c -0.118585,-0.039529 -0.256415,0.039529 -0.375,0 C 29.353647,7.6595492 29.333853,7.5279508 29.25,7.5 29.131415,7.4604715 28.993585,7.5395285 28.875,7.5 28.791147,7.4720492 28.75,7.375 28.6875,7.3125 28.5625,7.25 28.448082,7.1588954 28.3125,7.125 c -0.121268,-0.030317 -0.253732,0.030317 -0.375,0 -0.271163,-0.067791 -0.484835,-0.2866117 -0.75,-0.375 -0.05929,-0.019764 -0.125,0 -0.1875,0 -0.125,0 -0.256415,0.039529 -0.375,0 -0.08385,-0.027951 -0.103647,-0.1595492 -0.1875,-0.1875 -0.118585,-0.039529 -0.253732,0.030317 -0.375,0 C 25.926918,6.528605 25.820083,6.4191942 25.6875,6.375 25.62821,6.355236 25.555902,6.402951 25.5,6.375 25.42094,6.335471 25.396353,6.2154508 25.3125,6.1875 c -0.256011,-0.085337 -0.868989,0.085337 -1.125,0 C 24.103647,6.1595492 24.0625,6.0625 24,6 23.6875,6 23.375,6 23.0625,6 Z"
       id="path3735"
       inkscape:connector-curvature="0" />
    <path
       style="fill:#000080;stroke:#000000;stroke-width:1px;stroke-linecap:butt;stroke-linejoin:miter;stroke-opacity:1"
       d="M 8.25,15.9375 C 8.625,15.625 8.9383938,15.218303 9.375,15 c 0.2236068,-0.111803 0.5019305,0.03101 0.75,0 0.255704,-0.03196 0.494896,-0.151057 0.75,-0.1875 0.185616,-0.02652 0.376884,0.02652 0.5625,0 0.255104,-0.03644 0.494896,-0.151057 0.75,-0.1875 0.185616,-0.02652 0.375,0 0.5625,0 0.1875,0 0.375,0 0.5625,0 0.5625,0 1.125,0 1.6875,0 0.4375,0 0.875,0 1.3125,0 0.125,0 0.253732,0.03032 0.375,0 0.135582,-0.03389 0.242417,-0.143306 0.375,-0.1875 0.121257,-0.04042 0.732768,0 0.9375,0"
       id="path3753"
       inkscape:connector-curvature="0" />
    <path
       style="fill:#000080;stroke:#000000;stroke-width:1px;stroke-linecap:butt;stroke-linejoin:miter;stroke-opacity:1"
       d="m 13.125,15.5625 c 0,1.960575 -0.111803,-0.07221 0.1875,1.125 0.03032,0.121268 0,0.25 0,0.375 0,0.125 0,0.25 0,0.375 0,0.5 0,1 0,1.5 0,1.4375 0,2.875 0,4.3125"
       id="path3755"
       inkscape:connector-curvature="0" />
    <path
       style="fill:#000080;stroke:#000000;stroke-width:1px;stroke-linecap:butt;stroke-linejoin:miter;stroke-opacity:1"
       d="m 19.3125,18.1875 c 0.130041,-0.09753 0.797746,-0.668186 1.125,-0.75 0.121268,-0.03032 0.25,0 0.375,0 0.0625,0 0.131598,0.02795 0.1875,0 0.07906,-0.03953 0.103647,-0.159549 0.1875,-0.1875 0.118585,-0.03953 0.256415,0.03953 0.375,0 0.08385,-0.02795 0.108443,-0.147972 0.1875,-0.1875 0.551777,-0.275888 -0.246859,0.434359 0.375,-0.1875"
       id="path3767"
       inkscape:connector-curvature="0" />
    <path
       style="fill:#000080;stroke:#000000;stroke-width:1px;stroke-linecap:butt;stroke-linejoin:miter;stroke-opacity:1"
       d="m 21.345786,19.295884 c 0.01105,0.05524 0.02518,0.109958 0.03315,0.165728 0.0031,0.02188 0,0.04419 0,0.06629 0,0.0442 0,0.08839 0,0.132583 0,0.176777 0,0.353553 0,0.53033 0,0.475087 0,0.950175 0,1.425262 0,0.165728 0,0.331456 0,0.497185 0,0.03556 0.0073,0.21011 0,0.232019 -0.0078,0.02344 -0.02533,0.04285 -0.03315,0.06629 -0.0099,0.02983 0.0099,0.06961 0,0.09944 -0.0049,0.01482 -0.0282,0.01832 -0.03315,0.03315 -0.02096,0.02974 0.01048,0.06799 0,0.09944 -0.0078,0.02344 -0.02715,0.04232 -0.03314,0.06629 -0.0054,0.02144 0,0.04419 0,0.06629 0,0.0221 0,0.04419 0,0.06629 0,0.09944 0,0.198873 0,0.29831"
       id="path3773"
       inkscape:connector-curvature="0" />
    <path
       style="fill:#000080;stroke:#000000;stroke-width:1px;stroke-linecap:butt;stroke-linejoin:miter;stroke-opacity:1"
       d="m 25.058097,18.898136 c 0.01105,0.06629 0.02481,0.132188 0.03315,0.198874 0.0069,0.05482 0,0.110486 0,0.165728 0,0.110486 0,0.220971 0,0.331457 0,0.29831 0,0.596621 0,0.894932 0,0.287262 0,0.574524 0,0.861786 0,0.209922 0,0.419845 0,0.629767 0,0.309359 0,0.618719 0,0.928078 0,0.0221 0,0.04419 0,0.06629 0,0.0221 0.0054,0.04485 0,0.06629 -0.006,0.02397 -0.02533,0.04285 -0.03315,0.06629 -0.007,0.02096 0,0.04419 0,0.06629 0,0.01105 0,0.0221 0,0.03315 0,0.01105 0.0078,0.02533 0,0.03315 -0.0078,0.0078 -0.03315,0.01105 -0.03315,0 0,-0.01105 0.04096,0.0078 0.03315,0 -0.0291,-0.07128 -0.120174,-0.05388 -0.165729,-0.09944 -0.0078,-0.0078 0.0061,-0.02395 0,-0.03315 -0.08553,-0.128302 -0.06033,0.0028 -0.132582,-0.165729 -0.01794,-0.04187 -0.02063,-0.08878 -0.03315,-0.132582 -0.0096,-0.03359 -0.02929,-0.06471 -0.03315,-0.09944 -0.0081,-0.07292 0.0068,-0.283579 0,-0.364602 -0.0065,-0.07785 -0.02666,-0.154164 -0.03315,-0.232019 -0.0073,-0.08808 0,-0.176777 0,-0.265165 0,-0.0442 0,-0.08839 0,-0.132583 0,-0.03315 -0.0054,-0.06674 0,-0.09944 0.01149,-0.06893 0.05259,-0.130353 0.06629,-0.198874 0.0043,-0.02167 -0.0043,-0.04462 0,-0.06629 0.0069,-0.03426 0.02629,-0.06518 0.03315,-0.09944 0.0043,-0.02167 -0.0043,-0.04462 0,-0.06629 0.0069,-0.03426 0.02355,-0.06584 0.03315,-0.09944 0.01251,-0.0438 0.01623,-0.09029 0.03315,-0.132582 0.0058,-0.01451 0.0221,-0.0221 0.03315,-0.03315 0.0221,-0.04419 0.05067,-0.08571 0.06629,-0.132583 0.007,-0.02096 -0.007,-0.04533 0,-0.06629 0.0049,-0.01482 0.0221,-0.0221 0.03315,-0.03315 0.0221,-0.0221 0.04677,-0.04189 0.06629,-0.06629 0.02488,-0.03111 0.04141,-0.06833 0.06629,-0.09944 0.01952,-0.0244 0.04754,-0.04129 0.06629,-0.06629 0.02965,-0.03953 0.04087,-0.09021 0.06629,-0.132582 0.02049,-0.03416 0.0458,-0.06528 0.06629,-0.09944 0.01271,-0.02118 0.01944,-0.04574 0.03315,-0.06629 0.06257,-0.09385 0.02128,0.06282 0.09944,-0.132582 0.0082,-0.02052 -0.007,-0.04533 0,-0.06629 0.0099,-0.02965 0.04896,-0.04029 0.06629,-0.06629 0.0137,-0.02056 0.01568,-0.04882 0.03314,-0.06629 0.01747,-0.01747 0.04574,-0.01944 0.06629,-0.03315 0.013,-0.0087 0.02014,-0.02448 0.03315,-0.03315 0.02056,-0.0137 0.04419,-0.0221 0.06629,-0.03315 0.0221,-0.01105 0.04232,-0.02715 0.06629,-0.03314 0.02144,-0.0054 0.04485,0.0054 0.06629,0 0.02397,-0.006 0.04285,-0.02533 0.06629,-0.03315 0.01048,-0.0035 0.02266,0.0035 0.03315,0 0.129083,-0.04303 0.0031,-0.03315 0.132583,-0.03315 0.01105,0 0.0221,0 0.03315,0 0.01105,0 0.02533,-0.0078 0.03315,0 0.124346,0.124347 0.02097,0.06111 0.09944,0.165729 0.01875,0.025 0.05232,0.03834 0.06629,0.06629 0.0099,0.01976 -0.0082,0.04577 0,0.06629 0.01479,0.03699 0.0515,0.06245 0.06629,0.09944 0.0082,0.02052 -0.0036,0.0445 0,0.06629 0.0075,0.04493 0.02063,0.08878 0.03315,0.132583 0.0096,0.03359 0.0282,0.06485 0.03315,0.09944 0.0066,0.0464 -0.0066,0.185615 0,0.232019 0.0064,0.0451 0.02811,0.08731 0.03315,0.132583 0.0061,0.0549 0,0.110485 0,0.165728 0,0.05524 0,0.110485 0,0.165728 0,0.220971 0,0.441942 0,0.662912 0,0.150889 -0.01563,0.0019 0.03315,0.09944 0.0037,0.0074 0,0.124706 0,0.132583 0,0.06629 0,0.132582 0,0.198874 0,0.108949 -0.0049,-0.091 0.03315,0.09944 0.0065,0.0325 0,0.06629 0,0.09944 0,0.07734 0,0.15468 0,0.23202 0,0.01105 0,0.0221 0,0.03314 0,0.01105 0.0092,0.03927 0,0.03315 -0.131742,-0.08783 -0.07065,-0.07284 -0.132582,-0.165728 -0.0087,-0.013 -0.02734,-0.01864 -0.03315,-0.03315 -0.04051,-0.101268 -0.03315,-0.193599 -0.03315,-0.29831 0,-0.110486 0,-0.220971 0,-0.331457 0,-0.110485 0,-0.220971 0,-0.331456 0,-0.04419 0,-0.08839 0,-0.132582 0,-0.03315 -0.0054,-0.06674 0,-0.09944 0.0057,-0.03446 0.02629,-0.06518 0.03315,-0.09944 0.02528,-0.126412 -0.04696,-0.0055 0.03315,-0.165728 0.01782,-0.03563 0.0515,-0.06245 0.06629,-0.09944 0.0082,-0.02052 -0.0082,-0.04578 0,-0.06629 0.110065,-0.275162 0.02435,-0.0074 0.09944,-0.132582 0.02542,-0.04237 0.03543,-0.094 0.06629,-0.132583 0.01543,-0.01929 0.04574,-0.01944 0.06629,-0.03315 0.013,-0.0087 0.0221,-0.0221 0.03315,-0.03315 0.04419,-0.04419 0.08839,-0.08839 0.132583,-0.132582 0.0221,-0.0221 0.04029,-0.04896 0.06629,-0.06629 0.02056,-0.0137 0.04574,-0.01944 0.06629,-0.03315 0.04596,-0.03064 0.08521,-0.07101 0.132583,-0.09944 0.0095,-0.0057 0.02266,0.0035 0.03314,0 0.02344,-0.0078 0.04419,-0.0221 0.06629,-0.03315 0.04419,-0.0221 0.09021,-0.04087 0.132582,-0.06629 0.0134,-0.008 0.01832,-0.0282 0.03315,-0.03315 0.02096,-0.007 0.04577,0.0082 0.06629,0 0.03699,-0.01479 0.06245,-0.0515 0.09944,-0.06629 0.02052,-0.0082 0.04419,0 0.06629,0 0.03315,0 0.06694,0.0065 0.09944,0 0.02423,-0.0048 0.04192,-0.02908 0.06629,-0.03315 0.04359,-0.0073 0.08839,0 0.132583,0 0.03315,0 0.06629,0 0.09944,0 0.198873,0 0.397747,0 0.596621,0 0.008,0 0.09837,-0.0011 0.09944,0 0.165631,0.165631 0.05399,0.08179 0.132582,0.265165 0.01569,0.03662 0.05535,0.06113 0.06629,0.09944 0.01214,0.04249 -0.0087,0.08925 0,0.132583 0.0137,0.06852 0.0548,0.129947 0.06629,0.198874 0.0109,0.06539 0,0.132582 0,0.198873 0,0.03315 0,0.06629 0,0.09944 0,0.110486 0,0.220971 0,0.331457 0,0.04419 0.01072,0.08971 0,0.132582 -0.01198,0.04794 -0.04794,0.08671 -0.06629,0.132583 -0.0056,0.01404 0,0.134016 0,0.165728 0,0.154679 0,0.309359 0,0.464039"
       id="path3775"
       inkscape:connector-curvature="0" />
    <path
       style="fill:#000080;stroke:#000000;stroke-width:1px;stroke-linecap:butt;stroke-linejoin:miter;stroke-opacity:1"
       d="m 32.31699,20.986311 c 0.05524,-0.03315 0.105406,-0.07682 0.165728,-0.09944 0.03104,-0.01164 0.06674,0.0054 0.09944,0 0.03446,-0.0057 0.06554,-0.02467 0.09944,-0.03314 0.01072,-0.0027 0.0221,0 0.03314,0 0.07175,0 0.06804,0.0099 0.132583,-0.03315 0.013,-0.0087 0.0221,-0.0221 0.03314,-0.03315 0.01105,-0.01105 0.02377,-0.02065 0.03315,-0.03315 0.0239,-0.03187 0.03812,-0.07127 0.06629,-0.09944 0.04161,-0.04161 0.186526,-0.113085 0.23202,-0.132583 0.03211,-0.01376 0.06819,-0.01752 0.09944,-0.03315 0.03563,-0.01781 0.06245,-0.0515 0.09944,-0.06629 0.02052,-0.0082 0.04577,0.0082 0.06629,0 0.03699,-0.01479 0.06381,-0.04848 0.09944,-0.06629 0.03125,-0.01563 0.06819,-0.01752 0.09944,-0.03315 0.01398,-0.007 0.02014,-0.02448 0.03315,-0.03315 0.02056,-0.0137 0.04574,-0.01944 0.06629,-0.03315 0.013,-0.0087 0.01832,-0.0282 0.03315,-0.03315 0.02096,-0.007 0.04533,0.007 0.06629,0 0.01347,-0.0045 0.162142,-0.160946 0.165728,-0.165728 0.01482,-0.01976 0.02397,-0.04335 0.03315,-0.06629 0.01298,-0.03244 0.02467,-0.06554 0.03315,-0.09944 0.0027,-0.01072 0,-0.0221 0,-0.03315 0,-0.06629 0,-0.132583 0,-0.198874 0,-0.06629 0,-0.132583 0,-0.198874 0,-0.107305 0.01065,-0.196114 -0.03315,-0.29831 -0.06507,-0.151822 -0.07016,-0.05552 -0.165728,-0.198874 -0.01938,-0.02907 -0.01376,-0.07037 -0.03315,-0.09944 -0.026,-0.039 -0.06893,-0.06385 -0.09944,-0.09944 -0.03595,-0.04194 -0.057,-0.09722 -0.09944,-0.132583 -0.02684,-0.02237 -0.07037,-0.01377 -0.09944,-0.03315 -0.039,-0.026 -0.0644,-0.06829 -0.09944,-0.09944 -0.0645,-0.05733 -0.128181,-0.116243 -0.198874,-0.165728 -0.117784,-0.08245 -0.168607,-0.06053 -0.298311,-0.132583 -0.04829,-0.02683 -0.08462,-0.07203 -0.132582,-0.09944 -0.03402,-0.01944 -0.207181,-0.06132 -0.23202,-0.06629 -0.01083,-0.0022 -0.02326,0.0049 -0.03314,0 -0.01398,-0.007 -0.01917,-0.02616 -0.03315,-0.03315 -0.0099,-0.0049 -0.0221,0 -0.03315,0 -0.0898,0 -0.01945,-0.0088 -0.132582,0.132583 -0.0098,0.0122 -0.02734,0.01864 -0.03315,0.03315 -0.04248,0.106199 -0.01808,0.135597 -0.06629,0.232019 -0.07826,0.156512 -0.07184,0.03887 -0.09944,0.232019 -0.0047,0.03281 0.0054,0.06674 0,0.09944 -0.0419,0.251408 -0.03204,-0.07626 -0.06629,0.23202 -0.0061,0.0549 0,0.110485 0,0.165728 0,0.04419 0,0.08839 0,0.132582 0,0.09944 0,0.198874 0,0.298311 0,0.04419 -0.0049,0.08866 0,0.132583 0.0062,0.05599 0.02616,0.109826 0.03314,0.165728 0.0041,0.03289 -0.0054,0.06674 0,0.09944 0.0057,0.03446 0.0274,0.06497 0.03315,0.09944 0.01499,0.08996 -0.01499,0.208348 0,0.29831 0.0057,0.03446 0.02629,0.06518 0.03315,0.09944 0.0043,0.02167 -0.007,0.04533 0,0.06629 0.03192,0.09576 0.123248,0.213352 0.165728,0.298311 0.18593,0.371859 -0.176452,-0.250785 0.09944,0.232019 0.01976,0.03459 0.04419,0.06629 0.06629,0.09944 0.06729,0.100932 0.0835,0.129238 0.165728,0.23202 0.03904,0.0488 0.08839,0.08839 0.132583,0.132582 0.07734,0.07734 0.154679,0.15468 0.232019,0.23202 0.0221,0.0221 0.04754,0.04129 0.06629,0.06629 0.01482,0.01976 0.01568,0.04882 0.03315,0.06629 0.01747,0.01747 0.04653,0.01832 0.06629,0.03315 0.132583,0.09944 0.01657,0.03315 0.09944,0.09944 0.04314,0.03451 0.08944,0.06493 0.132583,0.09944 0.0122,0.0098 0.02014,0.02448 0.03315,0.03315 0.02056,0.0137 0.04574,0.01944 0.06629,0.03315 0.013,0.0087 0.02014,0.02448 0.03314,0.03315 0.02056,0.0137 0.04574,0.01944 0.06629,0.03314 0.013,0.0087 0.02014,0.02448 0.03315,0.03315 0.167445,0.11163 7.68e-4,2.56e-4 0.09944,0.03314 0.02344,0.0078 0.04207,0.0283 0.06629,0.03315 0.0325,0.0065 0.06629,0 0.09944,0 0.0221,0 0.04449,0.0036 0.06629,0 0.20695,-0.03449 0.06344,-0.01515 0.23202,-0.09944 0.106434,-0.05322 0.225022,-0.07937 0.331456,-0.132582 0.03563,-0.01782 0.06629,-0.04419 0.09944,-0.06629 0.03315,-0.0221 0.06833,-0.0414 0.09944,-0.06629 0.0244,-0.01952 0.04419,-0.04419 0.06629,-0.06629 0.03315,-0.03315 0.06629,-0.06629 0.09944,-0.09944 0.04182,-0.04182 0.09795,-0.08641 0.132583,-0.132583 0.01482,-0.01976 0.01832,-0.04653 0.03315,-0.06629 0.01875,-0.025 0.04754,-0.04129 0.06629,-0.06629 0.01482,-0.01976 0.02043,-0.04511 0.03315,-0.06629 0.0205,-0.03416 0.0458,-0.06528 0.06629,-0.09944 0.01271,-0.02118 0.01944,-0.04574 0.03315,-0.06629 0.0087,-0.013 0.0221,-0.0221 0.03315,-0.03315 0.0221,-0.04419 0.04087,-0.09021 0.06629,-0.132583 0.008,-0.0134 0.0282,-0.01832 0.03315,-0.03314 0.007,-0.02096 -0.007,-0.04533 0,-0.06629 0.005,-0.01513 0.08451,-0.08451 0.09944,-0.09944"
       id="path3777"
       inkscape:connector-curvature="0" />
    <path
       style="fill:#000080;stroke:#000000;stroke-width:1px;stroke-linecap:butt;stroke-linejoin:miter;stroke-opacity:1"
       d="m 13.457126,29.902486 c -0.06064,0.206314 -0.238229,0.343874 -0.331456,0.53033 -0.03125,0.0625 -0.04034,0.133994 -0.06629,0.198874 -0.06333,0.158328 -0.169948,0.290486 -0.198873,0.464038 -0.01816,0.108983 0.02167,0.223117 0,0.331457 -0.0137,0.06852 -0.0548,0.129947 -0.06629,0.198874 -0.0109,0.06539 0,0.132582 0,0.198873 0,0.15468 0,0.30936 0,0.464039 0,0.132583 0,0.265165 0,0.397748 0,0.06629 0,0.132582 0,0.198874 0,0.04419 -0.01397,0.09066 0,0.132582 0.0099,0.02965 0.04896,0.04029 0.06629,0.06629 0.05482,0.08223 0.07777,0.182941 0.132582,0.265165 0.01733,0.026 0.04419,0.04419 0.06629,0.06629 0.0442,0.04419 0.08839,0.08839 0.132583,0.132582 0.06629,0.06629 0.125667,0.140309 0.198874,0.198874 0.08627,0.06902 0.180287,0.128143 0.265165,0.198874 0.04801,0.04001 0.08058,0.09791 0.132582,0.132582 0.08222,0.05482 0.179364,0.08355 0.265165,0.132583 0.06918,0.03953 0.1249,0.102993 0.198874,0.132582 0.04103,0.01641 0.09155,-0.01641 0.132583,0 0.07397,0.02959 0.127612,0.09695 0.198873,0.132583 0.01976,0.0099 0.04462,-0.0043 0.06629,0 0.08934,0.01787 0.174972,0.05341 0.265165,0.06629 0.06563,0.0094 0.13387,-0.013 0.198873,0 0.04845,0.0097 0.08413,0.0566 0.132583,0.06629 0.065,0.013 0.132583,0 0.198874,0 0.154679,0 0.309359,0 0.464039,0 0.06629,0 0.142029,0.03411 0.198873,0 0.06832,-0.04099 0.08478,-0.135136 0.132583,-0.198873 0.106066,-0.141422 0.123744,-0.01768 0.265165,-0.265166 0.0452,-0.0791 0.03245,-0.180572 0.06629,-0.265165 0.01161,-0.02901 0.04754,-0.04129 0.06629,-0.06629 0.0478,-0.06374 0.102993,-0.1249 0.132583,-0.198874 0.01641,-0.04103 -0.01072,-0.08971 0,-0.132582 0.03217,-0.128696 0.151348,-0.212642 0.198874,-0.331456 0.01641,-0.04103 -0.0087,-0.08925 0,-0.132583 0.0137,-0.06852 0.05259,-0.130354 0.06629,-0.198874 0.0087,-0.04334 0,-0.08839 0,-0.132582 0,-0.15468 0,-0.309359 0,-0.464039 0,-0.08839 0,-0.176777 0,-0.265165 0,-0.06629 0.01608,-0.134562 0,-0.198874 -0.02886,-0.115443 -0.0908,-0.220036 -0.132582,-0.331456 -0.02454,-0.06543 -0.03504,-0.136374 -0.06629,-0.198874 -0.03563,-0.07126 -0.107388,-0.12329 -0.132582,-0.198874 -0.02096,-0.06289 0.013,-0.13387 0,-0.198874 -0.0097,-0.04845 -0.04794,-0.08671 -0.06629,-0.132582 -0.155033,-0.0345 -0.04044,-0.187606 -0.06629,-0.265165 -0.08011,-0.240325 -0.03145,-0.04718 -0.132582,-0.198874 -0.114532,-0.171797 -0.0144,-0.173873 -0.132583,-0.331456 -0.01576,-0.02101 -0.290014,-0.303828 -0.331456,-0.331456 -0.04111,-0.02741 -0.08839,-0.0442 -0.132583,-0.06629 -0.04419,-0.0221 -0.08465,-0.05431 -0.132582,-0.06629 -0.04288,-0.01072 -0.08839,0 -0.132583,0 -0.04419,0 -0.08839,0 -0.132582,0 -0.198874,0 -0.397748,0 -0.596622,0 -0.132582,0 -0.265165,0 -0.397747,0 -0.04419,0 -0.09305,-0.01976 -0.132583,0 -0.0559,0.02795 -0.08839,0.08839 -0.132582,0.132583 -0.0221,0.0221 -0.03665,0.05641 -0.06629,0.06629 -3.01e-4,10e-5 -0.198811,-6.4e-5 -0.198874,0 -0.08839,0.08839 0.110485,0.06629 -0.06629,0.06629"
       id="path3779"
       inkscape:connector-curvature="0" />
    <path
       style="fill:#000080;stroke:#000000;stroke-width:1px;stroke-linecap:butt;stroke-linejoin:miter;stroke-opacity:1"
       d="m 19.754796,29.703612 c 0,1.480505 0,2.96101 0,4.441514 0,0.287263 0,0.574525 0,0.861787 0,0.08839 -0.01096,0.177459 0,0.265165 0.0113,0.0904 0.04419,0.176777 0.06629,0.265165 0.0221,0.08839 0.02555,0.183675 0.06629,0.265165 0.04941,0.09882 0.144058,0.169237 0.198874,0.265165 0.06934,0.121341 0.07008,0.272748 0.132583,0.397748 0.07912,0.158249 0.111472,0.213934 0.265165,0.265165 0.02096,0.007 0.04653,-0.0099 0.06629,0 0.02795,0.01398 0.04419,0.04419 0.06629,0.06629 0.09299,0.09299 0.08743,0.107191 0.265165,0.132582 0.106967,0.01528 0.466434,0 0.596621,0 0.203942,0 0.345102,0.02632 0.530331,-0.06629 0.02795,-0.01397 0.04029,-0.04896 0.06629,-0.06629 0.04111,-0.02741 0.09764,-0.03135 0.132582,-0.06629 0.125196,-0.125195 0.03128,-0.125135 0.06629,-0.265165 0.02397,-0.09587 0.101332,-0.171415 0.132582,-0.265165 0.007,-0.02096 -0.0043,-0.04462 0,-0.06629 0.01787,-0.08934 0.04419,-0.176776 0.06629,-0.265165 0.04258,-0.170319 0.111543,-0.428303 0.132583,-0.596621 0.0082,-0.06578 -0.0109,-0.133485 0,-0.198874 0.01149,-0.06893 0.05113,-0.13066 0.06629,-0.198874 0.02916,-0.13121 0.03713,-0.266537 0.06629,-0.397747 0.01516,-0.06821 0.0548,-0.129948 0.06629,-0.198874 0.0109,-0.06539 -0.02096,-0.135984 0,-0.198874 0.02519,-0.07558 0.09695,-0.127613 0.132582,-0.198874 0.03669,-0.07338 0.125503,-0.407399 0.132583,-0.464038 0.01919,-0.153486 -0.02187,-0.310914 0,-0.464039 0.01288,-0.09019 0.05341,-0.174972 0.06629,-0.265165 0.0094,-0.06562 0,-0.132583 0,-0.198874 0,-0.110485 0,-0.220971 0,-0.331456 0,-0.397748 0,-0.795495 0,-1.193243 0,-0.08839 0,-0.176777 0,-0.265165 0,-0.0221 -0.0221,-0.06629 0,-0.06629 0.0221,0 -0.007,0.04533 0,0.06629 0.03763,0.11289 0.111296,0.214379 0.132583,0.331456 0.02372,0.130444 0,0.265165 0,0.397748 0,0.154679 -0.01186,0.309815 0,0.464039 0.01031,0.134015 0.05513,0.2638 0.06629,0.397747 0.01101,0.132125 -0.01017,0.265556 0,0.397748 0.01198,0.15579 0.05431,0.308249 0.06629,0.464039 0.01017,0.132192 -0.03216,0.269123 0,0.397747 0.03595,0.143806 0.148217,0.25844 0.198874,0.397748 0.0385,0.10589 0.04419,0.220971 0.06629,0.331456 0.06629,0.15468 0.136374,0.307789 0.198874,0.464039 0.02595,0.06488 0.04034,0.133994 0.06629,0.198874 0.01835,0.04588 0.04794,0.08671 0.06629,0.132582 0.02853,0.07134 0.07279,0.259703 0.132583,0.331456 0.100029,0.120035 0.220971,0.220971 0.331456,0.331457 0.04419,0.04419 0.08839,0.08839 0.132583,0.132582 0.0221,0.0221 0.03834,0.05232 0.06629,0.06629 0.01976,0.0099 0.04419,0 0.06629,0 0.04419,0 0.08839,0 0.132583,0 0.132582,0 0.265165,0 0.397747,0 0.508233,0 1.016466,0 1.524699,0"
       id="path3781"
       inkscape:connector-curvature="0" />
    <path
       style="fill:#000080;stroke:#000000;stroke-width:1px;stroke-linecap:butt;stroke-linejoin:miter;stroke-opacity:1"
       d="m 29.035572,29.703612 c 0.309359,0.08839 0.611529,0.207611 0.928078,0.265165 1.134317,0.20624 0,-0.15468 0.928078,0 0.137852,0.02298 0.260707,0.105175 0.397747,0.132583 0.08667,0.01733 0.176777,0 0.265165,0 0.265165,0 0.53033,0 0.795495,0 0.106734,0 0.447114,0.02774 0.53033,0 0.09375,-0.03125 0.169295,-0.108615 0.265165,-0.132583 0.128624,-0.03216 0.265165,0 0.397748,0"
       id="path3787"
       inkscape:connector-curvature="0" />
    <path
       style="fill:#000080;stroke:#000000;stroke-width:1px;stroke-linecap:butt;stroke-linejoin:miter;stroke-opacity:1"
       d="m 30.228815,27.184544 c 0,0.795495 0,1.59099 0,2.386486 0,0.894987 0.0218,-0.196168 -0.132583,1.193242 -0.02928,0.263543 0,0.53033 0,0.795495 0,0.132583 -0.026,0.26774 0,0.397748 0.02741,0.13704 0.105175,0.260707 0.132583,0.397747 0.01733,0.08667 -0.02795,0.181313 0,0.265166 0.01976,0.05929 0.109371,0.07455 0.132582,0.132582 0.06767,0.169184 0.06491,0.361146 0.132583,0.53033 0.02321,0.05803 0.112818,0.07329 0.132582,0.132583 0.02795,0.08385 0,0.176776 0,0.265165 0,0.04419 -0.01976,0.09305 0,0.132582 0.02795,0.0559 0.104632,0.07668 0.132583,0.132583 0.01976,0.03953 -0.01397,0.09066 0,0.132582 0.0625,0.1875 0.202665,0.34283 0.265165,0.53033 0.01397,0.04193 -0.01397,0.09066 0,0.132583 0.320117,0.96035 -0.03822,-0.209031 0.265165,0.397747 0.01976,0.03953 0,0.08839 0,0.132583 0.04419,0.04419 0.09791,0.08058 0.132583,0.132582 0.04419,0.08839 0.08839,0.176777 0.132582,0.265165 0,0.04419 -0.01976,0.09305 0,0.132583 0.02795,0.0559 0.104632,0.07668 0.132583,0.132583 0.01976,0.03953 -0.01398,0.09066 0,0.132582 0.03125,0.09375 0.08839,0.176777 0.132582,0.265165 0.04419,0.08839 0.05353,0.205872 0.132583,0.265165 0.251312,0.188484 0.655353,0.132583 0.928077,0.132583 0.220971,0 0.441942,0 0.662913,0 0.08839,0 0.181312,0.02795 0.265165,0 0.118585,-0.03953 0.153362,-0.209264 0.265165,-0.265165 0.03953,-0.01976 0.09581,0.02451 0.132583,0 0.768726,-0.512485 0.09818,-0.06377 0.265165,-0.397748 0.02795,-0.0559 0.112818,-0.07329 0.132582,-0.132582 0.04193,-0.125779 0,-0.265166 0,-0.397748 0,-0.265165 0,-0.53033 0,-0.795495"
       id="path3791"
       inkscape:connector-curvature="0" />
  </g>
</svg>
